<svg width="32" height="32" viewBox="0 0 32 32" fill="none" xmlns="http://www.w3.org/2000/svg">
  <rect width="32" height="32" rx="8" fill="white"/>
  <path d="M6 14C6 12.8954 6.89543 12 8 12H12C13.1046 12 14 12.8954 14 14V16C14 17.1046 13.1046 18 12 18H8C6.89543 18 6 17.1046 6 16V14Z" fill="#38B6E8"/>
  <path d="M18 14C18 12.8954 18.8954 12 20 12H24C25.1046 12 26 12.8954 26 14V16C26 17.1046 25.1046 18 24 18H20C18.8954 18 18 17.1046 18 16V14Z" fill="#38B6E8"/>
  <path d="M14 15H18" stroke="#38B6E8" stroke-width="2" stroke-linecap="round"/>
  <path d="M7 13C7 13 8 10 16 10C24 10 25 13 25 13" stroke="#38B6E8" stroke-width="1.5" stroke-linecap="round"/>
</svg>